<svg xmlns="http://www.w3.org/2000/svg" width="278.927" height="81.806" viewBox="0 0 278.927 81.806">
  <g id="Grupo_3065" data-name="Grupo 3065" transform="translate(-33.948 -210.372)">
    <g id="Grupo_3064" data-name="Grupo 3064" transform="translate(-322.248 -131.056)">
      <g id="Grupo_3061" data-name="Grupo 3061" transform="translate(453.981 376.422)">
        <path id="Caminho_3360" data-name="Caminho 3360" d="M779.556,534.845V498.1H788.9v27.9h17.852v8.851Z" transform="translate(-779.556 -496.905)" fill="#fff"/>
        <path id="Caminho_3361" data-name="Caminho 3361" d="M934.8,552.6H915.205q1.492,4.326,6.713,4.326a14.589,14.589,0,0,0,8.3-2.536l3.431,5.917a20.212,20.212,0,0,1-12.133,3.779c-4.873,0-8.6-1.392-11.238-4.127a14.231,14.231,0,0,1-3.928-10.194,13.942,13.942,0,0,1,4.077-10.293,15.669,15.669,0,0,1,20.686-.447c2.635,2.437,3.978,5.818,3.978,10.045A22.076,22.076,0,0,1,934.8,552.6Zm-19.691-6.017h11.636a5.569,5.569,0,0,0-5.718-4.227A5.667,5.667,0,0,0,915.106,546.58Z" transform="translate(-877.067 -525.546)" fill="#fff"/>
        <path id="Caminho_3362" data-name="Caminho 3362" d="M1065.23,536.038h8.254v27.448h-8.254V561.1a11.6,11.6,0,0,1-8.105,3.083,12.432,12.432,0,0,1-9.647-4.177,14.743,14.743,0,0,1-3.779-10.343,14.331,14.331,0,0,1,3.779-10.243,12.59,12.59,0,0,1,9.647-4.078,11.26,11.26,0,0,1,8.105,3.183Zm-1.939,9.2a6.158,6.158,0,0,0-4.525-1.889,6,6,0,0,0-4.525,1.889,6.234,6.234,0,0,0-1.79,4.476,6.382,6.382,0,0,0,1.79,4.575,6.364,6.364,0,0,0,9.05,0,6.224,6.224,0,0,0,1.84-4.575A6.081,6.081,0,0,0,1063.291,545.237Z" transform="translate(-982.689 -525.546)" fill="#fff"/>
        <path id="Caminho_3363" data-name="Caminho 3363" d="M1212.213,492.932h8.8v37.941h-8.553v-2.387a10.463,10.463,0,0,1-7.658,3.083,12.555,12.555,0,0,1-9.6-4.078,15.817,15.817,0,0,1,0-20.636,12.674,12.674,0,0,1,9.6-4.127,10.368,10.368,0,0,1,7.409,2.834Zm.348,24.167a6.171,6.171,0,0,0-6.265-6.365,5.97,5.97,0,0,0-4.475,1.889,6.234,6.234,0,0,0-1.79,4.476,6.417,6.417,0,0,0,1.79,4.624,5.926,5.926,0,0,0,4.475,1.84A6.225,6.225,0,0,0,1212.561,517.1Z" transform="translate(-1096.258 -492.932)" fill="#fff"/>
        <path id="Caminho_3364" data-name="Caminho 3364" d="M1366.639,552.6h-19.592q1.492,4.326,6.713,4.326a14.59,14.59,0,0,0,8.3-2.536l3.431,5.917a20.212,20.212,0,0,1-12.133,3.779c-4.873,0-8.6-1.392-11.238-4.127a14.231,14.231,0,0,1-3.928-10.194,13.94,13.94,0,0,1,4.077-10.293,15.669,15.669,0,0,1,20.686-.447c2.635,2.437,3.978,5.818,3.978,10.045A22.033,22.033,0,0,1,1366.639,552.6Zm-19.691-6.017h11.636a5.568,5.568,0,0,0-5.718-4.227A5.667,5.667,0,0,0,1346.948,546.58Z" transform="translate(-1209.165 -525.546)" fill="#fff"/>
        <path id="Caminho_3365" data-name="Caminho 3365" d="M1480.922,563.322V535.873h8.4v3.381a8.461,8.461,0,0,1,10.741-3.381l-.7,8.354a10.99,10.99,0,0,0-3.63-.646c-4.028,0-6.067,2.635-6.067,7.906v11.835Z" transform="translate(-1318.924 -525.381)" fill="#fff"/>
      </g>
      <g id="Grupo_3062" data-name="Grupo 3062" transform="translate(454.079 350.663)">
        <path id="Caminho_3366" data-name="Caminho 3366" d="M791.87,404.073h1.446V417.41H791.87v-2.593a6.076,6.076,0,0,1-5.26,2.917,6.238,6.238,0,0,1-4.736-2.019,7.107,7.107,0,0,1-1.894-5.035,6.914,6.914,0,0,1,1.87-4.936,6.321,6.321,0,0,1,4.761-1.994,6.054,6.054,0,0,1,5.26,2.892ZM790.5,414.717a5.785,5.785,0,0,0,1.5-4.039,5.582,5.582,0,0,0-1.5-3.938,4.989,4.989,0,0,0-3.814-1.62,4.883,4.883,0,0,0-3.764,1.62,6.259,6.259,0,0,0,0,8,5.213,5.213,0,0,0,7.578-.025Z" transform="translate(-779.979 -398.589)" fill="#fff"/>
        <path id="Caminho_3367" data-name="Caminho 3367" d="M855.309,400.23V381.409h1.446v7.728a4.822,4.822,0,0,1,4.612-2.593,5.169,5.169,0,0,1,3.764,1.471,5.48,5.48,0,0,1,1.521,4.163v8.052h-1.5v-7.8c0-2.792-1.5-4.487-3.963-4.487a4.4,4.4,0,0,0-3.066,1.2,4.63,4.63,0,0,0-1.321,3.59v7.5Z" transform="translate(-837.91 -381.409)" fill="#fff"/>
        <path id="Caminho_3368" data-name="Caminho 3368" d="M929.255,404.073h1.5v12.165a6.635,6.635,0,0,1-1.87,4.985,6.836,6.836,0,0,1-5.035,1.845,9.372,9.372,0,0,1-5.733-1.894l.773-1.2a8.066,8.066,0,0,0,4.986,1.72c3.315,0,5.384-2.044,5.384-5.31v-1.72a6.065,6.065,0,0,1-5.235,2.792,6.338,6.338,0,0,1-4.761-1.969,7.181,7.181,0,0,1,.025-9.747,6.36,6.36,0,0,1,4.761-1.994,6.072,6.072,0,0,1,5.21,2.717Zm-1.4,10.42a5.455,5.455,0,0,0,1.521-3.939,5.321,5.321,0,0,0-1.521-3.864,5.02,5.02,0,0,0-3.789-1.57,4.874,4.874,0,0,0-3.739,1.57,5.942,5.942,0,0,0,0,7.827,4.874,4.874,0,0,0,3.739,1.57A4.952,4.952,0,0,0,927.859,414.493Z" transform="translate(-885.632 -398.589)" fill="#fff"/>
        <path id="Caminho_3369" data-name="Caminho 3369" d="M990.886,405.768a7.1,7.1,0,0,1,9.921,0,7.264,7.264,0,0,1,0,9.946,7.1,7.1,0,0,1-9.921,0,7.264,7.264,0,0,1,0-9.946Zm8.849,8.974a5.694,5.694,0,0,0,1.546-4.013,5.593,5.593,0,0,0-1.546-3.988,5.447,5.447,0,0,0-7.777.025,5.534,5.534,0,0,0-1.546,3.963,5.694,5.694,0,0,0,1.546,4.013,5.23,5.23,0,0,0,3.889,1.621A5.152,5.152,0,0,0,999.736,414.742Z" transform="translate(-940.658 -398.589)" fill="#fff"/>
        <path id="Caminho_3370" data-name="Caminho 3370" d="M1062.521,417.327V403.99h1.421v2.144a3.86,3.86,0,0,1,3.864-2.493,6.51,6.51,0,0,1,1.645.224l-.174,1.421a4.707,4.707,0,0,0-1.421-.224c-2.418,0-3.839,1.894-3.839,4.662v7.6Z" transform="translate(-997.261 -398.506)" fill="#fff"/>
        <path id="Caminho_3371" data-name="Caminho 3371" d="M1106.357,404.073h1.446V417.41h-1.446v-2.593a6.076,6.076,0,0,1-5.26,2.917,6.237,6.237,0,0,1-4.736-2.019,7.108,7.108,0,0,1-1.895-5.035,6.915,6.915,0,0,1,1.87-4.936,6.32,6.32,0,0,1,4.761-1.994,6.055,6.055,0,0,1,5.26,2.892Zm-1.371,10.644a5.784,5.784,0,0,0,1.5-4.039,5.581,5.581,0,0,0-1.5-3.938,4.989,4.989,0,0,0-3.814-1.62,4.883,4.883,0,0,0-3.764,1.62,6.258,6.258,0,0,0,0,8,5.212,5.212,0,0,0,7.578-.025Z" transform="translate(-1021.828 -398.589)" fill="#fff"/>
      </g>
      <path id="Caminho_3372" data-name="Caminho 3372" d="M485.564,625.2l-6.716-9.311a1.476,1.476,0,0,0-1.949-.406,25.249,25.249,0,0,1-25.893-.119,1.474,1.474,0,0,0-1.954.392l-6.8,9.289a1.771,1.771,0,0,0,.472,2.541,39.95,39.95,0,0,0,42.339.158A1.774,1.774,0,0,0,485.564,625.2Z" transform="translate(-65.917 -210.498)" fill="#fff"/>
      <path id="Caminho_3373" data-name="Caminho 3373" d="M379.123,478.209l-10.9-3.582a1.774,1.774,0,0,0-2.273,1.244,39.95,39.95,0,0,0,12.958,40.308,1.771,1.771,0,0,0,2.565-.318l6.8-9.288a1.474,1.474,0,0,0-.218-1.981,25.249,25.249,0,0,1-7.955-24.648A1.476,1.476,0,0,0,379.123,478.209Z" transform="translate(-6.57 -102.364)" fill="#fff"/>
      <path id="Caminho_3374" data-name="Caminho 3374" d="M629.633,476.987a1.772,1.772,0,0,0-2.263-1.255l-10.875,3.493a1.476,1.476,0,0,0-.989,1.729,25.211,25.211,0,0,1-8.13,24.629,1.478,1.478,0,0,0-.238,1.986l6.715,9.309a1.772,1.772,0,0,0,2.567.332,39.99,39.99,0,0,0,13.214-40.223Z" transform="translate(-192.766 -103.217)" fill="#fff"/>
      <path id="Caminho_3375" data-name="Caminho 3375" d="M541.842,363.477a1.476,1.476,0,0,0,1.346,1.475A25.257,25.257,0,0,1,564.154,380.3a1.476,1.476,0,0,0,1.814.837l10.864-3.489a1.773,1.773,0,0,0,1.109-2.338,39.959,39.959,0,0,0-34.167-25,1.772,1.772,0,0,0-1.893,1.765Z" transform="translate(-142.767 -6.825)" fill="#fff"/>
      <path id="Caminho_3376" data-name="Caminho 3376" d="M393.71,375.138A25.166,25.166,0,0,1,411.9,364.905a1.476,1.476,0,0,0,1.35-1.465l.039-11.414a1.772,1.772,0,0,0-1.881-1.778A39.991,39.991,0,0,0,377.07,375.01a1.771,1.771,0,0,0,1.093,2.346l10.893,3.581a1.478,1.478,0,0,0,1.821-.828A25.177,25.177,0,0,1,393.71,375.138Z" transform="translate(-15.952 -6.779)" fill="#fff"/>
      <circle id="Elipse_57" data-name="Elipse 57" cx="10.347" cy="10.347" r="10.347" transform="translate(356.196 341.428)" fill="#2b64ad"/>
      <g id="Grupo_3063" data-name="Grupo 3063" transform="translate(358.533 344.964)">
        <path id="Caminho_3377" data-name="Caminho 3377" d="M370.14,376.134l-3.824,3.819,3.824,3.818Z" transform="translate(-366.315 -371.654)" fill="#fff"/>
        <path id="Caminho_3378" data-name="Caminho 3378" d="M384.347,376.134v7.637l3.825-3.818Z" transform="translate(-380.182 -371.654)" fill="#fff"/>
        <path id="Caminho_3379" data-name="Caminho 3379" d="M420.752,376.18v7.637L424.576,380Z" transform="translate(-408.178 -371.689)" fill="#fff"/>
        <path id="Caminho_3380" data-name="Caminho 3380" d="M406.541,376.18,402.716,380l3.825,3.818Z" transform="translate(-394.309 -371.689)" fill="#fff"/>
        <path id="Caminho_3381" data-name="Caminho 3381" d="M393.046,360.554l-3.824-3.818-3.824,3.818Z" transform="translate(-380.99 -356.736)" fill="#fff"/>
        <path id="Caminho_3382" data-name="Caminho 3382" d="M385.4,374.742l3.824,3.818,3.825-3.818Z" transform="translate(-380.99 -370.583)" fill="#fff"/>
      </g>
      <path id="Caminho_3383" data-name="Caminho 3383" d="M590.04,545.268v-2.749a5.359,5.359,0,0,0-5.353-5.353h-2.868a7.464,7.464,0,0,1,.452,2.564v12.906A22.065,22.065,0,0,0,590.04,545.268Z" transform="translate(-173.51 -150.527)" fill="#c0e7fa"/>
      <path id="Caminho_3384" data-name="Caminho 3384" d="M465.082,537.167h-2.868a5.359,5.359,0,0,0-5.353,5.353v2.749a22.069,22.069,0,0,0,7.769,7.369V539.731A7.459,7.459,0,0,1,465.082,537.167Z" transform="translate(-77.414 -150.528)" fill="#c0e7fa"/>
      <path id="Caminho_3385" data-name="Caminho 3385" d="M511.676,525.092H505.12a5.359,5.359,0,0,0-5.353,5.353V544.41a22.018,22.018,0,0,0,17.263,0V530.445A5.359,5.359,0,0,0,511.676,525.092Z" transform="translate(-110.41 -141.242)" fill="#c0e7fa"/>
      <path id="Caminho_3386" data-name="Caminho 3386" d="M515.7,463.64a6.437,6.437,0,1,0,6.438,6.438A6.445,6.445,0,0,0,515.7,463.64Z" transform="translate(-117.713 -93.984)" fill="#c0e7fa"/>
      <path id="Caminho_3387" data-name="Caminho 3387" d="M472.163,489.619a4.812,4.812,0,1,0,4.815,4.815A4.82,4.82,0,0,0,472.163,489.619Z" transform="translate(-85.479 -113.962)" fill="#c0e7fa"/>
      <path id="Caminho_3388" data-name="Caminho 3388" d="M574.864,494.434a4.813,4.813,0,1,0-4.815,4.815A4.82,4.82,0,0,0,574.864,494.434Z" transform="translate(-160.756 -113.962)" fill="#c0e7fa"/>
    </g>
  </g>
</svg>
