<svg xmlns="http://www.w3.org/2000/svg" width="225.911" height="66.257" viewBox="0 0 225.911 66.257">
  <g id="Grupo_3071" data-name="Grupo 3071" transform="translate(-356.196 -341.428)">
    <g id="Grupo_3067" data-name="Grupo 3067" transform="translate(435.395 369.771)">
      <g id="Grupo_3066" data-name="Grupo 3066" transform="translate(0 0)">
        <path id="Caminho_3389" data-name="Caminho 3389" d="M779.556,527.861V498.1h7.572v22.594h14.458v7.169Z" transform="translate(-779.556 -497.132)" fill="#78768c"/>
        <path id="Caminho_3390" data-name="Caminho 3390" d="M929.391,549.318H913.523q1.208,3.5,5.437,3.5a11.818,11.818,0,0,0,6.726-2.054l2.779,4.793a16.371,16.371,0,0,1-9.827,3.061c-3.947,0-6.967-1.128-9.1-3.343a11.527,11.527,0,0,1-3.182-8.256,11.292,11.292,0,0,1,3.3-8.337,12.692,12.692,0,0,1,16.754-.362,10.585,10.585,0,0,1,3.222,8.135A17.882,17.882,0,0,1,929.391,549.318Zm-15.948-4.873h9.424a4.51,4.51,0,0,0-4.632-3.423A4.59,4.59,0,0,0,913.442,544.445Z" transform="translate(-882.634 -527.409)" fill="#78768c"/>
        <path id="Caminho_3391" data-name="Caminho 3391" d="M1061.138,535.907h6.685v22.231h-6.685V556.2a9.4,9.4,0,0,1-6.565,2.5,10.069,10.069,0,0,1-7.813-3.383,11.94,11.94,0,0,1-3.061-8.377,11.607,11.607,0,0,1,3.061-8.3,10.2,10.2,0,0,1,7.813-3.3,9.119,9.119,0,0,1,6.565,2.577Zm-1.571,7.451a4.988,4.988,0,0,0-3.665-1.53,4.861,4.861,0,0,0-3.665,1.53,5.049,5.049,0,0,0-1.45,3.625,5.169,5.169,0,0,0,1.45,3.705,5.154,5.154,0,0,0,7.33,0,5.041,5.041,0,0,0,1.49-3.705A4.925,4.925,0,0,0,1059.567,543.357Z" transform="translate(-994.285 -527.409)" fill="#78768c"/>
        <path id="Caminho_3392" data-name="Caminho 3392" d="M1208.253,492.932h7.128v30.729h-6.927v-1.933a8.473,8.473,0,0,1-6.2,2.5,10.168,10.168,0,0,1-7.773-3.3,12.811,12.811,0,0,1,0-16.714,10.265,10.265,0,0,1,7.773-3.343,8.4,8.4,0,0,1,6,2.3Zm.282,19.573a5,5,0,0,0-5.074-5.155,4.835,4.835,0,0,0-3.625,1.53,5.049,5.049,0,0,0-1.45,3.625,5.2,5.2,0,0,0,1.45,3.746,4.8,4.8,0,0,0,3.625,1.49A5.042,5.042,0,0,0,1208.535,512.505Z" transform="translate(-1114.338 -492.932)" fill="#78768c"/>
        <path id="Caminho_3393" data-name="Caminho 3393" d="M1361.233,549.318h-15.868q1.208,3.5,5.437,3.5a11.819,11.819,0,0,0,6.726-2.054l2.779,4.793a16.371,16.371,0,0,1-9.827,3.061c-3.947,0-6.967-1.128-9.1-3.343a11.528,11.528,0,0,1-3.182-8.256,11.291,11.291,0,0,1,3.3-8.337,12.691,12.691,0,0,1,16.754-.362,10.585,10.585,0,0,1,3.222,8.135A17.869,17.869,0,0,1,1361.233,549.318Zm-15.948-4.873h9.424a4.51,4.51,0,0,0-4.631-3.423A4.59,4.59,0,0,0,1345.284,544.445Z" transform="translate(-1233.69 -527.409)" fill="#78768c"/>
        <path id="Caminho_3394" data-name="Caminho 3394" d="M1480.922,557.963V535.731h6.807v2.739a6.852,6.852,0,0,1,8.7-2.739l-.564,6.766a8.9,8.9,0,0,0-2.94-.524c-3.262,0-4.913,2.135-4.913,6.4v9.585Z" transform="translate(-1349.716 -527.234)" fill="#78768c"/>
      </g>
    </g>
    <g id="Grupo_3069" data-name="Grupo 3069" transform="translate(435.474 348.908)">
      <g id="Grupo_3068" data-name="Grupo 3068" transform="translate(0 0)">
        <path id="Caminho_3395" data-name="Caminho 3395" d="M789.61,404.011h1.171v10.8H789.61v-2.1a4.921,4.921,0,0,1-4.26,2.362,5.052,5.052,0,0,1-3.836-1.635,5.757,5.757,0,0,1-1.534-4.078,5.6,5.6,0,0,1,1.514-4,5.12,5.12,0,0,1,3.856-1.615,4.9,4.9,0,0,1,4.26,2.342Zm-1.111,8.621a4.685,4.685,0,0,0,1.211-3.271,4.522,4.522,0,0,0-1.211-3.19,4.041,4.041,0,0,0-3.089-1.312,3.955,3.955,0,0,0-3.049,1.312,5.069,5.069,0,0,0,0,6.481,4.222,4.222,0,0,0,6.138-.02Z" transform="translate(-779.979 -399.57)" fill="#78768c"/>
        <path id="Caminho_3396" data-name="Caminho 3396" d="M855.309,396.652V381.409h1.171v6.259a3.905,3.905,0,0,1,3.735-2.1,4.187,4.187,0,0,1,3.049,1.191,4.438,4.438,0,0,1,1.232,3.372v6.521h-1.212v-6.319c0-2.261-1.211-3.634-3.21-3.634a3.563,3.563,0,0,0-2.483.969,3.75,3.75,0,0,0-1.07,2.907v6.077Z" transform="translate(-841.217 -381.409)" fill="#78768c"/>
        <path id="Caminho_3397" data-name="Caminho 3397" d="M926.994,404.011h1.212v9.853a5.373,5.373,0,0,1-1.514,4.038,5.538,5.538,0,0,1-4.078,1.494,7.59,7.59,0,0,1-4.643-1.534l.626-.969a6.533,6.533,0,0,0,4.038,1.393,4.024,4.024,0,0,0,4.361-4.3v-1.393a4.912,4.912,0,0,1-4.24,2.261,5.134,5.134,0,0,1-3.856-1.595,5.816,5.816,0,0,1,.02-7.894,5.151,5.151,0,0,1,3.856-1.615,4.917,4.917,0,0,1,4.22,2.2Zm-1.131,8.439a4.419,4.419,0,0,0,1.232-3.19,4.31,4.31,0,0,0-1.232-3.129,4.066,4.066,0,0,0-3.069-1.272,3.948,3.948,0,0,0-3.028,1.272,4.812,4.812,0,0,0,0,6.34,3.948,3.948,0,0,0,3.028,1.272A4.011,4.011,0,0,0,925.864,412.451Z" transform="translate(-891.663 -399.57)" fill="#78768c"/>
        <path id="Caminho_3398" data-name="Caminho 3398" d="M990.512,405.384a5.753,5.753,0,0,1,8.036,0,5.884,5.884,0,0,1,0,8.056,5.754,5.754,0,0,1-8.036,0,5.884,5.884,0,0,1,0-8.056Zm7.167,7.268a4.613,4.613,0,0,0,1.252-3.251,4.529,4.529,0,0,0-1.252-3.23,4.412,4.412,0,0,0-6.3.02,4.482,4.482,0,0,0-1.252,3.21,4.612,4.612,0,0,0,1.252,3.251,4.236,4.236,0,0,0,3.15,1.312A4.173,4.173,0,0,0,997.679,412.653Z" transform="translate(-949.831 -399.57)" fill="#78768c"/>
        <path id="Caminho_3399" data-name="Caminho 3399" d="M1062.521,414.725v-10.8h1.151v1.736a3.126,3.126,0,0,1,3.13-2.019,5.273,5.273,0,0,1,1.333.182l-.141,1.151a3.8,3.8,0,0,0-1.151-.182c-1.958,0-3.109,1.535-3.109,3.776v6.158Z" transform="translate(-1009.665 -399.482)" fill="#78768c"/>
        <path id="Caminho_3400" data-name="Caminho 3400" d="M1104.1,404.011h1.171v10.8H1104.1v-2.1a4.921,4.921,0,0,1-4.26,2.362A5.052,5.052,0,0,1,1096,413.44a5.758,5.758,0,0,1-1.534-4.078,5.6,5.6,0,0,1,1.514-4,5.12,5.12,0,0,1,3.856-1.615,4.9,4.9,0,0,1,4.26,2.342Zm-1.11,8.621a4.684,4.684,0,0,0,1.212-3.271,4.521,4.521,0,0,0-1.212-3.19,4.041,4.041,0,0,0-3.089-1.312,3.955,3.955,0,0,0-3.049,1.312,5.069,5.069,0,0,0,0,6.481,4.222,4.222,0,0,0,6.138-.02Z" transform="translate(-1035.634 -399.57)" fill="#78768c"/>
      </g>
    </g>
    <path id="Caminho_3401" data-name="Caminho 3401" d="M477.267,623.288l-5.44-7.541a1.2,1.2,0,0,0-1.579-.329,20.45,20.45,0,0,1-20.972-.1,1.194,1.194,0,0,0-1.582.317l-5.505,7.523a1.434,1.434,0,0,0,.382,2.058,32.356,32.356,0,0,0,34.292.128A1.437,1.437,0,0,0,477.267,623.288Z" transform="translate(-69.68 -222.515)" fill="#1d96d4"/>
    <path id="Caminho_3402" data-name="Caminho 3402" d="M376.389,477.511l-8.825-2.9a1.437,1.437,0,0,0-1.841,1.008,32.356,32.356,0,0,0,10.5,32.646,1.434,1.434,0,0,0,2.077-.258l5.5-7.523a1.194,1.194,0,0,0-.176-1.6,20.449,20.449,0,0,1-6.443-19.963A1.2,1.2,0,0,0,376.389,477.511Z" transform="translate(-6.946 -108.208)" fill="#1d96d4"/>
    <path id="Caminho_3403" data-name="Caminho 3403" d="M625.3,476.733a1.435,1.435,0,0,0-1.833-1.017l-8.808,2.829a1.2,1.2,0,0,0-.8,1.4,20.419,20.419,0,0,1-6.585,19.948,1.2,1.2,0,0,0-.193,1.608l5.439,7.54a1.435,1.435,0,0,0,2.079.269,32.389,32.389,0,0,0,10.7-32.578Z" transform="translate(-203.77 -109.11)" fill="#1d96d4"/>
    <path id="Caminho_3404" data-name="Caminho 3404" d="M541.842,360.973a1.2,1.2,0,0,0,1.09,1.2A20.457,20.457,0,0,1,559.913,374.6a1.2,1.2,0,0,0,1.469.678l8.8-2.826a1.436,1.436,0,0,0,.9-1.894,32.364,32.364,0,0,0-27.673-20.25,1.435,1.435,0,0,0-1.533,1.429Z" transform="translate(-150.917 -7.214)" fill="#1d96d4"/>
    <path id="Caminho_3405" data-name="Caminho 3405" d="M390.522,370.406a20.382,20.382,0,0,1,14.735-8.287,1.2,1.2,0,0,0,1.093-1.187l.032-9.245a1.435,1.435,0,0,0-1.524-1.44A32.39,32.39,0,0,0,377.045,370.3a1.435,1.435,0,0,0,.885,1.9l8.823,2.9a1.2,1.2,0,0,0,1.475-.67A20.391,20.391,0,0,1,390.522,370.406Z" transform="translate(-16.863 -7.166)" fill="#1d96d4"/>
    <circle id="Elipse_58" data-name="Elipse 58" cx="8.38" cy="8.38" r="8.38" transform="translate(356.196 341.428)" fill="#2b64ad"/>
    <g id="Grupo_3070" data-name="Grupo 3070" transform="translate(358.089 344.292)">
      <path id="Caminho_3406" data-name="Caminho 3406" d="M369.413,376.134l-3.1,3.093,3.1,3.092Z" transform="translate(-366.315 -372.505)" fill="#fff"/>
      <path id="Caminho_3407" data-name="Caminho 3407" d="M384.347,376.134v6.185l3.1-3.092Z" transform="translate(-380.974 -372.505)" fill="#fff"/>
      <path id="Caminho_3408" data-name="Caminho 3408" d="M420.752,376.18v6.185l3.1-3.092Z" transform="translate(-410.568 -372.543)" fill="#fff"/>
      <path id="Caminho_3409" data-name="Caminho 3409" d="M405.814,376.18l-3.1,3.093,3.1,3.092Z" transform="translate(-395.907 -372.543)" fill="#fff"/>
      <path id="Caminho_3410" data-name="Caminho 3410" d="M391.592,359.829l-3.1-3.092-3.1,3.092Z" transform="translate(-381.828 -356.736)" fill="#fff"/>
      <path id="Caminho_3411" data-name="Caminho 3411" d="M385.4,374.742l3.1,3.092,3.1-3.092Z" transform="translate(-381.828 -371.374)" fill="#fff"/>
    </g>
    <path id="Caminho_3412" data-name="Caminho 3412" d="M588.477,543.728V541.5a4.341,4.341,0,0,0-4.336-4.336h-2.323a6.045,6.045,0,0,1,.366,2.077V549.7A17.873,17.873,0,0,0,588.477,543.728Z" transform="translate(-183.415 -159.121)" fill="#cbcbd3"/>
    <path id="Caminho_3413" data-name="Caminho 3413" d="M463.519,537.167H461.2a4.341,4.341,0,0,0-4.336,4.336v2.226a17.876,17.876,0,0,0,6.292,5.968V539.244A6.04,6.04,0,0,1,463.519,537.167Z" transform="translate(-81.833 -159.121)" fill="#cbcbd3"/>
    <path id="Caminho_3414" data-name="Caminho 3414" d="M509.413,525.092H504.1a4.341,4.341,0,0,0-4.336,4.336v11.311a17.834,17.834,0,0,0,13.981,0v-11.31A4.341,4.341,0,0,0,509.413,525.092Z" transform="translate(-116.713 -149.305)" fill="#cbcbd3"/>
    <path id="Caminho_3415" data-name="Caminho 3415" d="M514.478,463.64a5.213,5.213,0,1,0,5.214,5.214A5.22,5.22,0,0,0,514.478,463.64Z" transform="translate(-124.433 -99.349)" fill="#cbcbd3"/>
    <path id="Caminho_3416" data-name="Caminho 3416" d="M471.248,489.619a3.9,3.9,0,1,0,3.9,3.9A3.9,3.9,0,0,0,471.248,489.619Z" transform="translate(-90.358 -120.468)" fill="#cbcbd3"/>
    <path id="Caminho_3417" data-name="Caminho 3417" d="M573.034,493.519a3.9,3.9,0,1,0-3.9,3.9A3.9,3.9,0,0,0,573.034,493.519Z" transform="translate(-169.934 -120.468)" fill="#cbcbd3"/>
  </g>
</svg>
